<svg xmlns="http://www.w3.org/2000/svg" xmlns:xlink="http://www.w3.org/1999/xlink" width="500" zoomAndPan="magnify" viewBox="0 0 375 374.999991" height="500" preserveAspectRatio="xMidYMid meet" version="1.2"><defs><clipPath id="140d867946"><path d="M 129.011719 173.953125 L 241.367188 173.953125 L 241.367188 286.308594 L 129.011719 286.308594 Z M 129.011719 173.953125 "/></clipPath><clipPath id="5c6253a252"><path d="M 185.191406 173.953125 C 154.164062 173.953125 129.011719 199.105469 129.011719 230.128906 C 129.011719 261.15625 154.164062 286.308594 185.191406 286.308594 C 216.214844 286.308594 241.367188 261.15625 241.367188 230.128906 C 241.367188 199.105469 216.214844 173.953125 185.191406 173.953125 Z M 185.191406 173.953125 "/></clipPath><clipPath id="f2f8a2cab0"><path d="M 165.46875 88.617188 L 209.75 88.617188 L 209.75 132.894531 L 165.46875 132.894531 Z M 165.46875 88.617188 "/></clipPath><clipPath id="a7a6fac26a"><path d="M 187.609375 88.617188 C 175.382812 88.617188 165.46875 98.527344 165.46875 110.753906 C 165.46875 122.984375 175.382812 132.894531 187.609375 132.894531 C 199.835938 132.894531 209.75 122.984375 209.75 110.753906 C 209.75 98.527344 199.835938 88.617188 187.609375 88.617188 Z M 187.609375 88.617188 "/></clipPath><clipPath id="c83980b16e"><path d="M 224.113281 104.808594 L 245.925781 104.808594 L 245.925781 126.527344 L 224.113281 126.527344 Z M 224.113281 104.808594 "/></clipPath><clipPath id="c46d86730a"><path d="M 235.019531 104.808594 C 228.996094 104.808594 224.113281 109.609375 224.113281 115.535156 C 224.113281 121.460938 228.996094 126.265625 235.019531 126.265625 C 241.042969 126.265625 245.925781 121.460938 245.925781 115.535156 C 245.925781 109.609375 241.042969 104.808594 235.019531 104.808594 Z M 235.019531 104.808594 "/></clipPath></defs><g id="6616203050"><rect x="0" width="375" y="0" height="374.999991" style="fill:#ffffff;fill-opacity:1;stroke:none;"/><rect x="0" width="375" y="0" height="374.999991" style="fill:#693ee7;fill-opacity:1;stroke:none;"/><g clip-rule="nonzero" clip-path="url(#140d867946)"><g clip-rule="nonzero" clip-path="url(#5c6253a252)"><path style="fill:none;stroke-width:24.965784;stroke-linecap:butt;stroke-linejoin:miter;stroke:#fefefe;stroke-opacity:1;stroke-miterlimit:4;" d="M 85.056035 -0.0000272182 C 38.079042 -0.0000272182 -0.00289801 38.081913 -0.00289801 85.052991 C -0.00289801 132.029983 38.079042 170.111924 85.056035 170.111924 C 132.027113 170.111924 170.109053 132.029983 170.109053 85.052991 C 170.109053 38.081913 132.027113 -0.0000272182 85.056035 -0.0000272182 Z M 85.056035 -0.0000272182 " transform="matrix(0.66048,0,0,0.66048,129.013633,173.953143)"/></g></g><g clip-rule="nonzero" clip-path="url(#f2f8a2cab0)"><g clip-rule="nonzero" clip-path="url(#a7a6fac26a)"><path style="fill:none;stroke-width:15.887318;stroke-linecap:butt;stroke-linejoin:miter;stroke:#fefefe;stroke-opacity:1;stroke-miterlimit:4;" d="M 33.671979 0.00259352 C 15.077322 0.00259352 -0.000389996 15.074365 -0.000389996 33.669022 C -0.000389996 52.269619 15.077322 67.341391 33.671979 67.341391 C 52.266636 67.341391 67.344348 52.269619 67.344348 33.669022 C 67.344348 15.074365 52.266636 0.00259352 33.671979 0.00259352 Z M 33.671979 0.00259352 " transform="matrix(0.657531,0,0,0.657531,165.469006,88.615482)"/></g></g><g clip-rule="nonzero" clip-path="url(#c83980b16e)"><g clip-rule="nonzero" clip-path="url(#c46d86730a)"><path style="fill:none;stroke-width:9.078467;stroke-linecap:butt;stroke-linejoin:miter;stroke:#fefefe;stroke-opacity:1;stroke-miterlimit:4;" d="M 16.538438 0.00114027 C 7.402931 0.00114027 -0.00263494 7.282293 -0.00263494 16.269688 C -0.00263494 25.257083 7.402931 32.54416 16.538438 32.54416 C 25.673944 32.54416 33.07951 25.257083 33.07951 16.269688 C 33.07951 7.282293 25.673944 0.00114027 16.538438 0.00114027 Z M 16.538438 0.00114027 " transform="matrix(0.659344,0,0,0.659344,224.115019,104.807842)"/></g></g></g></svg>